<svg id="Layer_1" data-name="Layer 1" xmlns="http://www.w3.org/2000/svg" viewBox="0 0 589.22 178.09"><defs><style>.cls-1{fill:#231f20;}</style></defs><path class="cls-1" d="M93.68,111.39q-.5-9.9-.75-19t-.4-16.1c-.1-4.66-.17-8.4-.2-11.2s0-4.23,0-4.3a9.27,9.27,0,0,0-6.3-8.4,18.73,18.73,0,0,0,2,.1h1.95A69.56,69.56,0,0,0,98.13,52c2.5-.3,4.78-.61,6.85-.95s4-.65,5.65-1a27.4,27.4,0,0,1,4.75-.45,8.69,8.69,0,0,1,2.3.3,35.25,35.25,0,0,0-9.25,9.35,20.5,20.5,0,0,0-3.25,11.35q0,7.41,4.9,16.8a80.51,80.51,0,0,0-3.75,12.5,63,63,0,0,0-1.45,13.4c0,1.94.08,4.15.25,6.65a59,59,0,0,0,1,7.35,45.1,45.1,0,0,0,5.35,5,24.34,24.34,0,0,0,4.25,2.7,14.44,14.44,0,0,0,3.55,1.2c1.1.2,2.18.37,3.25.5l-2.6-6.6c2.27,1.27,4.53,2.47,6.8,3.6a62.71,62.71,0,0,0,7,3,49,49,0,0,0,7.55,2.05,45.26,45.26,0,0,0,8.45.75c2,0,4.08-.06,6.25-.2s4.45-.36,6.85-.7a95.17,95.17,0,0,1-16.55,5.05,74.35,74.35,0,0,1-14.65,1.55,50.7,50.7,0,0,1-16.25-2.5,57.05,57.05,0,0,1-13.8-6.75,67.9,67.9,0,0,1-11.6-9.8,106.53,106.53,0,0,1-9.6-11.7,128.21,128.21,0,0,1-7.8-12.45q-3.45-6.3-6.15-12v10.2c0,4.14.13,7.6.4,10.4a40.21,40.21,0,0,0,1.3,7.3,23.27,23.27,0,0,0,2.3,5.45,37,37,0,0,0,3.4,4.75c-1.47-.4-2.75-.8-3.85-1.2a26,26,0,0,1-3.2-1.4,24.74,24.74,0,0,1-3.2-2q-1.65-1.2-3.85-3a27.53,27.53,0,0,1-7.2,8.3,39.77,39.77,0,0,1-12.1,6,46.21,46.21,0,0,0,5.6-6.55,50.18,50.18,0,0,0,4.55-7.8,49.37,49.37,0,0,0,3.1-8.55,34.89,34.89,0,0,0,1.15-8.9A31,31,0,0,0,53.73,95a25.37,25.37,0,0,0-3.45-7.5q4.9-9.39,4.9-16.8a20.5,20.5,0,0,0-3.25-11.35A35.25,35.25,0,0,0,42.68,50a8,8,0,0,1,2.3-.3,26.52,26.52,0,0,1,4.55.45q2.55.45,5.6,1c2,.34,4.23.65,6.6.95a61,61,0,0,0,7.65.45h2a18.73,18.73,0,0,0,2-.1q-5.4,2.1-6.2,7.4,1.8,4.5,4.35,10.4t5.7,12.4Q80.28,89.1,84,95.74t7.7,12.65Z"/><path class="cls-1" d="M122.88,124.39a7.43,7.43,0,0,0,2.65-3.4,35.94,35.94,0,0,0,2-5.7,48.29,48.29,0,0,0,1.25-6.65,56.91,56.91,0,0,0,.4-6.35,38.23,38.23,0,0,0-1-8.6,15.55,15.55,0,0,0-2.65-6.2,12.21,12.21,0,0,0,2.65-4.25,32.12,32.12,0,0,0,1.65-5.7,48.73,48.73,0,0,0,.8-6.25q.19-3.2.2-6c0-1.53,0-2.86-.1-4s-.13-2-.2-2.6a12.66,12.66,0,0,1-4.75-3.3,16.75,16.75,0,0,1-3.65-5.4c4.26.47,8.32.79,12.15.95s7.45.25,10.85.25a175.78,175.78,0,0,0,17.6-.7c4.47-.46,8-.7,10.6-.7.53,0,1,0,1.4.05s.76.09,1.1.15a17.25,17.25,0,0,0-1.25,4c-.44,1.94-.85,4-1.25,6.35s-.75,4.54-1,6.7-.52,3.79-.65,4.85l-.7.3a13.75,13.75,0,0,1-5-4.5,19.48,19.48,0,0,1-2.35-6,7.21,7.21,0,0,0-3.5-1.4,38.63,38.63,0,0,0-5.3-.3c-1.74,0-3.4,0-5,.1s-2.87.1-3.8.1a72.43,72.43,0,0,0-1.2,9.5q-.41,5.61-.6,11.9a24.15,24.15,0,0,0,2.85.25c1,0,1.72,0,2.25,0a6.6,6.6,0,0,0,4.15-1.65A22.4,22.4,0,0,0,157.38,76c.33.8.66,1.72,1,2.75s.71,2.07,1.15,3.1a24.49,24.49,0,0,0,1.45,3,5.75,5.75,0,0,0,1.9,2.1,12,12,0,0,0-1.75,2.3,32.6,32.6,0,0,0-1.6,3c-.5,1.07-1,2.14-1.4,3.2s-.82,2-1.15,2.9c-.4-.73-.87-1.53-1.4-2.4a24.38,24.38,0,0,0-1.7-2.4,10.26,10.26,0,0,0-1.95-1.85,3.8,3.8,0,0,0-2.25-.75c-.6,0-1.47,0-2.6.1a20.89,20.89,0,0,0-3.1.4v1.8q0,6.3.15,12t.55,9.85l16.9,1.7a28.93,28.93,0,0,1,4.95-11,117.17,117.17,0,0,1,7.65-9.3l.6.2c-.2,1.54-.34,3-.4,4.55s-.1,3-.1,4.35a78.6,78.6,0,0,0,.5,9.4,33.54,33.54,0,0,0,1.2,6.3c-1.14.14-2.25.32-3.35.55a20.48,20.48,0,0,0-3.55,1.15,26.56,26.56,0,0,0-4.05,2.2,49.3,49.3,0,0,0-4.75,3.6,125.3,125.3,0,0,0-16.6-3.75,99.59,99.59,0,0,0-14.8-1.25,17,17,0,0,0-5.9,1Z"/><path class="cls-1" d="M224.08,103.19a34.06,34.06,0,0,0-9.55-1.8q-5.35-.3-11.65-.4v4.1a25.12,25.12,0,0,0,1.85,9.7,13.72,13.72,0,0,0,5.35,6.7,26.47,26.47,0,0,0-6.7,6.2,69.06,69.06,0,0,0-4.7,7.5,21.68,21.68,0,0,0-5.65-7.8,39,39,0,0,0-8.45-5.9,21,21,0,0,0,3-7.15,38.42,38.42,0,0,0,1-8.75,37.82,37.82,0,0,0-1.15-9.5,15,15,0,0,0-3.25-6.6A24,24,0,0,0,188,80.14,57.18,57.18,0,0,0,189,69.79c0-.93,0-1.86,0-2.8s-.09-1.86-.15-2.8a13.12,13.12,0,0,1-6-3.9,13.47,13.47,0,0,1-3-7.9c2.26.34,4.33.6,6.2.8a50.53,50.53,0,0,0,5.4.3,32.38,32.38,0,0,0,9.15-1.3,46.73,46.73,0,0,0,10.25-4.7,20.24,20.24,0,0,0,4.35,2.3,65.26,65.26,0,0,0,7.65,2.7q4.4,1.3,9.3,2.25a48.28,48.28,0,0,0,9.3.95c.93,0,1.83,0,2.7-.1s1.76-.16,2.7-.3c-.34.74-.77,1.6-1.3,2.6a30.42,30.42,0,0,1-1.85,3,21.79,21.79,0,0,1-2.45,2.9,16.81,16.81,0,0,1-3,2.4q-.51,3.21-.75,6.3t-.25,6a31.9,31.9,0,0,0,.7,7.2,30.14,30.14,0,0,0,2.5,6.6,43,43,0,0,0-5.6,1.95,24.66,24.66,0,0,0-4.25,2.35,21.75,21.75,0,0,0-3.4,3A42.34,42.34,0,0,0,224.08,103.19Zm.7-15.4c-.07-.93-.12-2.26-.15-4s-.09-3.6-.15-5.6-.12-4-.15-6-.09-3.81-.15-5.35q-3.21-.6-6-1.3c-1.87-.46-3.65-.95-5.35-1.45s-3.37-1-5-1.5-3.32-1-5.05-1.45q-.1,3.3-.1,6.5V81.84q0,3.75.1,7.55c.66-.06,1.38-.11,2.15-.15s1.58,0,2.45,0q2,0,4.2.15c1.46.1,2.86.24,4.2.4a30.77,30.77,0,0,1,3.55.65,9,9,0,0,1,2.35.9,7.55,7.55,0,0,1,1.4-2.05A9.14,9.14,0,0,1,224.78,87.79Z"/><path class="cls-1" d="M310.08,120.49a21.82,21.82,0,0,0-6.55,7.25,50.17,50.17,0,0,0-3.75,8.45,33,33,0,0,0-1.45-4.3,28.34,28.34,0,0,0-2.35-4.45,25.74,25.74,0,0,0-3.25-4,16,16,0,0,0-4.05-3,5.58,5.58,0,0,0,1.35-2.35,21.43,21.43,0,0,0,.7-4.1q.24-2.64.35-6.75t.3-10.3a29.52,29.52,0,0,1-2.65-1.9q-2.25-1.7-4.85-3.8L277,95.39q-3.36,2-6.15,3.7.39,7.5,1.15,14.15a102.22,102.22,0,0,0,2.05,12.15,23.74,23.74,0,0,0-4.65-1.8,16.9,16.9,0,0,0-3.95-.5,18.63,18.63,0,0,0-3.35.3c-1.1.2-2.24.42-3.4.65s-2.39.45-3.65.65a27.1,27.1,0,0,1-4.2.3h-1.1a5.35,5.35,0,0,1-1.1-.1,16,16,0,0,0,3.9-3.45,24.14,24.14,0,0,0,3.1-4.75,28,28,0,0,0,2.05-5.5,22.67,22.67,0,0,0,.75-5.7,41.31,41.31,0,0,0-1.2-9.95,20.42,20.42,0,0,0-3.8-8.05,38,38,0,0,0,3.8-9.85,44.31,44.31,0,0,0,1-9.25c0-1.8-.1-3.76-.3-5.9a10.17,10.17,0,0,1-6.45-3.15q-2.25-2.55-2.25-8,4.2.9,6.9,1.25a41.54,41.54,0,0,0,5.5.35c1.06,0,2.23-.05,3.5-.15a21.58,21.58,0,0,0,4.05-.75,26.05,26.05,0,0,0,4.65-1.85,31.56,31.56,0,0,0,5.3-3.45,20.21,20.21,0,0,0,4.4,2.3,69.07,69.07,0,0,0,7.7,2.7,88.5,88.5,0,0,0,9.35,2.2,52.31,52.31,0,0,0,9.35.9c.93,0,1.83,0,2.7-.1s1.76-.16,2.7-.3a14.1,14.1,0,0,1-4.3,4.75,28.25,28.25,0,0,1-7.1,3.95,14.39,14.39,0,0,0-.3,3c0,1.07.05,2.2.15,3.4s.23,2.4.4,3.6a29.74,29.74,0,0,0,.65,3.4,14.67,14.67,0,0,0,.9,2.7,25,25,0,0,0-3.45,1.55q-2.46,1.26-5.85,3.25,2.29,2.1,5,4.4a41.41,41.41,0,0,0,5.5,4,12.68,12.68,0,0,0-.75,3.8q-.25,2.7-.25,6.2c0,1.74.06,3.49.2,5.25a38.93,38.93,0,0,0,.7,5.1,28.77,28.77,0,0,0,1.25,4.45A8.78,8.78,0,0,0,310.08,120.49Zm-20.4-58c-3.6-.53-6.94-1-10-1.4a82.37,82.37,0,0,1-9.1-1.7c-.14,1.67-.2,3.47-.2,5.4v21.6c2.13-1.26,4.33-2.55,6.6-3.85l6.3-3.6q2.89-1.65,4.8-2.8a21.08,21.08,0,0,0,2.1-1.35Z"/><path class="cls-1" d="M320.38,88.19a14.59,14.59,0,0,0,2.35-3.55,34.34,34.34,0,0,0,1.85-4.7,38.35,38.35,0,0,0,1.25-5.35,34.56,34.56,0,0,0,.45-5.5,26.89,26.89,0,0,0-1.4-8.7,10.72,10.72,0,0,0-4.6-6q3.09-.2,6.75-.8t7.35-1.5q3.69-.9,7.1-2a49.47,49.47,0,0,0,6-2.25c2.2.34,4.81.89,7.85,1.65s6.05,1.55,9.05,2.35l8.25,2.2a30.19,30.19,0,0,0,5.45,1.1,16.33,16.33,0,0,0-2,5.75,41.72,41.72,0,0,0-.6,7.15,45.07,45.07,0,0,0,1.4,11.15,25.33,25.33,0,0,0,4,9.05,24.57,24.57,0,0,0-4.1,8.45,38.26,38.26,0,0,0-1.6,11.05,25.64,25.64,0,0,0,1.4,8.6,11.05,11.05,0,0,0,4.6,6c-2.07.14-4.35.4-6.85.8s-5,.9-7.5,1.5-4.92,1.25-7.25,2a41,41,0,0,0-6,2.25,65.27,65.27,0,0,1-7.8-1.5c-3-.73-6-1.5-8.95-2.3s-5.69-1.55-8.15-2.25a42.79,42.79,0,0,0-5.3-1.25,7.57,7.57,0,0,0,1.95-4.25,37.6,37.6,0,0,0,.55-6.75,63.48,63.48,0,0,0-.45-7.35,65.88,65.88,0,0,0-1.2-7.1,29.94,29.94,0,0,0-1.75-5.45C321.81,89.23,321.11,88.39,320.38,88.19Zm18,24.9q1.8,1,3.3,1.8a32.65,32.65,0,0,0,3.05,1.45,26.27,26.27,0,0,0,3.35,1.15,38.79,38.79,0,0,0,4.1.9,37.37,37.37,0,0,1,6.7-2.75,13.63,13.63,0,0,0,3.3-1.15q.19-9.69.35-20.35t.15-20.25v-5c0-1.63-.07-3.21-.2-4.75l-3.3-1.8c-1-.53-2-1-3.05-1.45a32.72,32.72,0,0,0-3.3-1.15q-1.75-.49-4.05-.9a48.4,48.4,0,0,1-6.75,2.9,17.85,17.85,0,0,0-3.35,1.3q-.1,2.5-.2,6t-.15,7.65c0,2.74-.05,5.6-.05,8.6v8.8c0,3,0,6.24.05,9.7S338.38,110.43,338.38,113.09Z"/><path class="cls-1" d="M431.48,111.39q-.51-9.9-.75-19t-.4-16.1c-.1-4.66-.17-8.4-.2-11.2s-.05-4.23-.05-4.3a9.3,9.3,0,0,0-6.3-8.4,18.46,18.46,0,0,0,2,.1h1.94a69.56,69.56,0,0,0,8.25-.45c2.5-.3,4.79-.61,6.86-.95s4-.65,5.64-1a27.6,27.6,0,0,1,4.76-.45,8.74,8.74,0,0,1,2.3.3,35.1,35.1,0,0,0-9.25,9.35A20.5,20.5,0,0,0,443,70.69q0,7.41,4.9,16.8a78.39,78.39,0,0,0-3.75,12.5,63.06,63.06,0,0,0-1.46,13.4c0,1.94.09,4.15.25,6.65a59.05,59.05,0,0,0,1,7.35,45.1,45.1,0,0,0,5.35,5,24,24,0,0,0,4.25,2.7,14.3,14.3,0,0,0,3.55,1.2c1.1.2,2.18.37,3.25.5l-2.6-6.6q3.39,1.91,6.8,3.6a61.92,61.92,0,0,0,7,3,48.65,48.65,0,0,0,7.55,2.05,45.26,45.26,0,0,0,8.45.75c2,0,4.08-.06,6.25-.2s4.45-.36,6.85-.7A95.43,95.43,0,0,1,484,143.74a74.35,74.35,0,0,1-14.65,1.55,50.66,50.66,0,0,1-16.25-2.5,57.05,57.05,0,0,1-13.8-6.75,67.51,67.51,0,0,1-11.6-9.8,106.53,106.53,0,0,1-9.6-11.7,128.21,128.21,0,0,1-7.8-12.45q-3.45-6.3-6.16-12v10.2c0,4.14.14,7.6.41,10.4a39.36,39.36,0,0,0,1.3,7.3,23.26,23.26,0,0,0,2.29,5.45,37.09,37.09,0,0,0,3.41,4.75c-1.47-.4-2.75-.8-3.85-1.2a26,26,0,0,1-3.2-1.4,23.45,23.45,0,0,1-3.2-2c-1.1-.8-2.39-1.8-3.85-3a27.67,27.67,0,0,1-7.2,8.3,39.83,39.83,0,0,1-12.11,6,46.93,46.93,0,0,0,5.61-6.55,50.18,50.18,0,0,0,4.55-7.8,48.52,48.52,0,0,0,3.09-8.55,34.9,34.9,0,0,0,1.16-8.9,31,31,0,0,0-1.05-8.1,25.62,25.62,0,0,0-3.45-7.5Q393,78.1,393,70.69a20.59,20.59,0,0,0-3.25-11.35A35.25,35.25,0,0,0,380.48,50a8,8,0,0,1,2.3-.3,26.52,26.52,0,0,1,4.55.45q2.55.45,5.59,1c2,.34,4.24.65,6.61.95a60.77,60.77,0,0,0,7.64.45h2a18.73,18.73,0,0,0,1.95-.1q-5.4,2.1-6.2,7.4,1.8,4.5,4.35,10.4c1.69,3.94,3.6,8.07,5.69,12.4s4.39,8.72,6.86,13.15,5,8.65,7.7,12.65Z"/><path class="cls-1" d="M506.27,38.49a49.57,49.57,0,0,1-5.25,4,40.7,40.7,0,0,1-5.95,3.3,38,38,0,0,1-6.4,2.25,26.21,26.21,0,0,1-6.6.85H480a19.27,19.27,0,0,1-2-.1c-.2,2-.3,4-.3,6.1q0,8.51.1,17.1t.1,18.3a28,28,0,0,0,1.85,10,13.74,13.74,0,0,0,5.35,7,37.51,37.51,0,0,0-7.05,4.25,19.74,19.74,0,0,0-5,6.45,14.46,14.46,0,0,0-5.3-6.55,39,39,0,0,0-8.1-4.15,20.76,20.76,0,0,0,3-7.55,42.73,42.73,0,0,0,1-9V83.14q0-3.35.05-6.25c0-1.93.07-3.8.1-5.6s.07-3.73.1-5.8.05-4.33.05-6.8V48.49a6,6,0,0,0-.2-1.5q-6.6-1.2-12.55-2.45a53.32,53.32,0,0,0-10.85-1.25,24.36,24.36,0,0,0-4.7.5l-.1-.3a32.35,32.35,0,0,0,8.85-3.9,57,57,0,0,0,6.95-5.5q5.21,1.5,8.85,2.4c2.44.6,4.7,1.07,6.8,1.4a56,56,0,0,0,6.2.65c2,.1,4.35.15,6.95.15a14.47,14.47,0,0,1-1.4-3,13.69,13.69,0,0,1-.5-2.85A37.83,37.83,0,0,0,484.32,36a31.9,31.9,0,0,0,5.45,1.7,29.94,29.94,0,0,0,5.2.65c1.74.07,3.54.1,5.4.1,1.07,0,2.05,0,2.95-.1s1.82-.16,2.75-.3Z"/><path class="cls-1" d="M488,87.09a14.59,14.59,0,0,0,2.35-3.55,34.34,34.34,0,0,0,1.85-4.7,38.35,38.35,0,0,0,1.25-5.35,34.56,34.56,0,0,0,.45-5.5,26.89,26.89,0,0,0-1.4-8.7,10.72,10.72,0,0,0-4.6-6q3.09-.2,6.75-.8T502,51q3.69-.9,7.1-2a49.47,49.47,0,0,0,6-2.25c2.2.34,4.81.89,7.85,1.65s6,1.55,9,2.35l8.25,2.2a30.19,30.19,0,0,0,5.45,1.1,16.33,16.33,0,0,0-2,5.75,41.72,41.72,0,0,0-.6,7.15,45.07,45.07,0,0,0,1.4,11.15,25.33,25.33,0,0,0,4,9,24.57,24.57,0,0,0-4.1,8.45,38.26,38.26,0,0,0-1.6,11,25.64,25.64,0,0,0,1.4,8.6,11.05,11.05,0,0,0,4.6,6c-2.07.14-4.35.4-6.85.8s-5,.9-7.5,1.5-4.92,1.25-7.25,2a41,41,0,0,0-6,2.25,65.27,65.27,0,0,1-7.8-1.5c-3-.73-6-1.5-9-2.3s-5.69-1.55-8.15-2.25a42.79,42.79,0,0,0-5.3-1.25,7.57,7.57,0,0,0,1.95-4.25,37.6,37.6,0,0,0,.55-6.75,63.48,63.48,0,0,0-.45-7.35,65.88,65.88,0,0,0-1.2-7.1,29.94,29.94,0,0,0-1.75-5.45C489.47,88.13,488.77,87.29,488,87.09ZM506,112q1.8,1,3.3,1.8a32.65,32.65,0,0,0,3.05,1.45,26.27,26.27,0,0,0,3.35,1.15,38.79,38.79,0,0,0,4.1.9,37.37,37.37,0,0,1,6.7-2.75,13.63,13.63,0,0,0,3.3-1.15q.2-9.69.35-20.35t.15-20.25v-5c0-1.63-.07-3.21-.2-4.75l-3.3-1.8c-1-.53-2-1-3.05-1.45a32.72,32.72,0,0,0-3.3-1.15q-1.75-.49-4-.9a48.4,48.4,0,0,1-6.75,2.9,17.85,17.85,0,0,0-3.35,1.3q-.1,2.5-.2,6.05T506,75.69c0,2.74-.05,5.6-.05,8.6v8.8c0,3,0,6.24.05,9.7S506,109.33,506,112Z"/></svg>