<svg id="Layer_1" data-name="Layer 1" xmlns="http://www.w3.org/2000/svg" viewBox="0 0 166.73 198.26"><defs><style>.cls-1{fill:#0f4d81;}.cls-2{fill:#e58128;}</style></defs><path class="cls-1" d="M43.34,54.45h10c-1.75,1.53-3.26,2.77-4.6,4.06a4.37,4.37,0,0,1-3.27.89c-6.16,0-12.32,0-18.86,0,.85-1.68,2.81-2.85,4.28-4.15,4.66-4.08,9.34-8.16,14.2-12.17,1.4-1.16,1.48-2,.06-3.15-6.34-5.29-12.46-10.65-18.62-16,.92-.87,2.23-.54,3.26-.54,19.24,0,38.48,0,57.72-.05,2.75,0,4.19.54,5.56,1.75q8.22,7.27,16.77,14.43c1.23,1,1.38,1.71.08,2.74a69.56,69.56,0,0,0-8,6.91c-2.11,2.29-5,3.11-9.46,2.73-1-.09-2,0-4,0,3.56-3.09,6.63-6,10.1-8.68,1.73-1.35,1.55-2.3-.09-3.61-4-3.24-7.79-6.61-11.65-9.92a3.91,3.91,0,0,0-3.19-1.4c-13.3,0-26.6,0-40.58,0,4.58,4,8.61,7.67,13.06,11.22,1.91,1.51,1.74,2.53-.1,4C51.74,47,47.76,50.63,43.34,54.45Z"/><path class="cls-2" d="M99.18,23.31c6.67,0,12.82,0,18.95,0a4.8,4.8,0,0,1,3.73,1.37c5.73,5,11.47,9.91,17.3,14.84,1.17,1,1.41,1.71.14,2.79-6.27,5.24-12.36,10.55-18.47,15.85a5.07,5.07,0,0,1-3.8,1.3c-20.27,0-40.53,0-61.62,0,3.06-2.68,5.79-5.09,8.56-7.48,3.38-2.92,6.69-5.86,10.26-8.71,1.56-1.25,1.6-2.22,0-3.47-3.45-2.77-6.65-5.63-10.45-8.88,3.76,0,6.75,0,9.74,0A3.88,3.88,0,0,1,76.63,32c1.87,1.63,3.4,3.45,5.76,4.84,5.63,3.31,4.83,6.24-.14,9.55-3.52,2.33-6.11,5.09-9.1,7.65.85.83,2.17.46,3.19.47,11.61,0,23.22,0,34.83,0,2.43,0,4-.3,5.34-1.52q5.42-5,11.34-9.77c1.51-1.23,1.72-2.12.1-3.42-4-3.25-7.82-6.61-11.59-10a5,5,0,0,0-4.47-1.48C104.64,29.25,101.69,26.75,99.18,23.31Z"/><path class="cls-2" d="M97.64,158.22V148.16c1.72,1.75,3.11,3.26,4.56,4.61.83.77,1,1.83,1,3.27,0,6.16,0,12.32,0,18.85-1.88-.85-3.19-2.8-4.64-4.28-4.58-4.66-9.15-9.34-13.65-14.2-1.29-1.4-2.19-1.48-3.52,0-5.92,6.33-11.93,12.46-17.88,18.62-1-.93-.6-2.24-.6-3.27,0-19.24,0-38.48-.06-57.72,0-2.74.61-4.19,2-5.56Q73,100.23,81,91.66c1.14-1.23,1.92-1.38,3.06-.07a71.74,71.74,0,0,0,7.75,8c2.56,2.12,3.48,5,3,9.46-.09,1,0,2,0,4-3.46-3.56-6.67-6.64-9.72-10.11-1.52-1.73-2.57-1.55-4,.09-3.64,4.06-7.4,7.79-11.12,11.65a3.75,3.75,0,0,0-1.56,3.19c0,13.3,0,26.6,0,40.58,4.44-4.58,8.59-8.61,12.56-13.06,1.7-1.9,2.84-1.74,4.47.1C89.31,149.81,93.37,153.79,97.64,158.22Z"/><path class="cls-1" d="M62.76,102.37c0-6.67.05-12.81,0-19a4.49,4.49,0,0,1,1.53-3.73c5.55-5.73,11.1-11.47,16.61-17.3C82,61.22,82.81,61,84,62.26c5.88,6.26,11.82,12.36,17.76,18.47a4.71,4.71,0,0,1,1.45,3.79c0,20.27,0,40.53,0,61.62-3-3.06-5.69-5.79-8.37-8.56-3.27-3.38-6.57-6.69-9.76-10.25-1.4-1.57-2.48-1.61-3.89,0-3.1,3.45-6.31,6.66-9.94,10.45,0-3.76,0-6.75,0-9.74a3.71,3.71,0,0,1,1.24-3.07c1.83-1.87,3.87-3.39,5.42-5.76,3.71-5.63,7-4.83,10.7.14,2.62,3.52,5.71,6.11,8.57,9.1.94-.85.52-2.17.53-3.19,0-11.61,0-23.22,0-34.82,0-2.43-.35-4-1.71-5.34-3.71-3.61-7.35-7.41-10.94-11.34-1.37-1.52-2.38-1.73-3.83-.11-3.64,4.06-7.41,7.82-11.16,11.6a4.69,4.69,0,0,0-1.66,4.46C69.42,96.92,66.62,99.86,62.76,102.37Z"/></svg>